<svg xmlns="http://www.w3.org/2000/svg" width="267.91" height="197.029" viewBox="0 0 267.91 197.029">
  <g id="apv_logo" transform="translate(-90.401 -209.364)">
    <path id="Path_1" data-name="Path 1" d="M204.467,229.723A22.459,22.459,0,0,0,182.13,209.6h-6.786a22.46,22.46,0,0,0-18.439,9.636l-49.158,70.684a5.784,5.784,0,0,0,4.748,9.086h17.915a10.344,10.344,0,0,0,8.758-4.84l.664-1.057h-.186l23.67-38,13.967-23.471,1.3,30.666.077.037,1.151,23.371h.01l.441,6.616a7.157,7.157,0,0,0,7.141,6.681h24.33Z" transform="translate(-11.456 -0.169)" fill="#ffc800"/>
    <path id="Path_2" data-name="Path 2" d="M522.672,219.753c-7.35-9.883-19.894-10.264-30.918-10.389H457.974a7.776,7.776,0,0,0-7.436,5.5l-2.953,9.661a13.692,13.692,0,0,0-.529,5.38l6.954,68.913,5.565-16.886a13.411,13.411,0,0,1,12.737-9.214h3.478c12.671,0,25.215.634,35.986-7.222,9.124-6.589,15.713-19.008,15.713-30.285C527.487,227.356,524.573,222.16,522.672,219.753Zm-28.648,15.68a1.655,1.655,0,0,1,1.452,2.449L484.9,257.229a1.268,1.268,0,0,1-2.381-.587l-.2-11.717a1.237,1.237,0,0,0-1.237-1.217h-3.378a2.13,2.13,0,0,1-1.869-3.151l10.846-19.847a.906.906,0,0,1,1.7.419l.219,13.086a1.238,1.238,0,0,0,1.237,1.217Z" transform="translate(-250.433 0)" fill="#303133"/>
    <path id="Path_3" data-name="Path 3" d="M718.405,211.271a7.613,7.613,0,0,0-6.445,3.562l-1.468,2.335h.186l-23.67,38-13.967,23.471-1.3-30.666-.077-.037-.077-1.557a.9.9,0,0,0-1.768-.2,40.289,40.289,0,0,1-14.4,21.212,33.2,33.2,0,0,1-7.661,4.168,3.831,3.831,0,0,0-2.431,3.978l2.039,19.454a6.343,6.343,0,0,0,6.309,5.682h27.383a10.821,10.821,0,0,0,8.884-4.642l52.631-75.677a5.784,5.784,0,0,0-4.748-9.086Z" transform="translate(-389.72 -1.339)" fill="#ffc800"/>
    <g id="Group_1" data-name="Group 1" transform="translate(90.401 309.924)">
      <path id="Path_4" data-name="Path 4" d="M104.945,547.784a.775.775,0,0,1,.8-.617H115.8a.775.775,0,0,1,.8.617L130.8,588.51q.185.619-.432.617H120.186a.774.774,0,0,1-.8-.617l-1.975-6.479H103.772L101.8,588.51a.774.774,0,0,1-.8.617H90.876q-.618,0-.432-.617Zm9.75,25.238-3.888-13.082h-.185l-4.072,13.082Z" transform="translate(-90.401 -547.167)" fill="#303133"/>
      <path id="Path_5" data-name="Path 5" d="M260.935,589.5q-5.615,0-8.022-2.437t-2.406-8.115V547.784a.545.545,0,0,1,.617-.617h9.132a.546.546,0,0,1,.617.617V577.9q0,2.962,2.53,2.962h1.3a.546.546,0,0,1,.617.617v7.4a.546.546,0,0,1-.617.617Z" transform="translate(-202.845 -547.167)" fill="#303133"/>
      <path id="Path_6" data-name="Path 6" d="M342.507,627.324a17.2,17.2,0,0,1-3.548-.37,19.059,19.059,0,0,1-3.332-1.018,15.429,15.429,0,0,1-2.838-1.512,10.684,10.684,0,0,1-2.067-1.789.638.638,0,0,1,.062-.925l5.184-5.307a.6.6,0,0,1,.925,0,13.092,13.092,0,0,0,2.746,1.759,7.434,7.434,0,0,0,3.178.648,5.039,5.039,0,0,0,4.042-1.481,7.032,7.032,0,0,0,1.265-4.628v-2.283h-.062a6.9,6.9,0,0,1-2.931,2.56,10.6,10.6,0,0,1-4.72.956q-7.529,0-9.873-7.22a19.783,19.783,0,0,1-.74-3.3,29.828,29.828,0,0,1-.247-4.1,29.158,29.158,0,0,1,.247-4.072,21.709,21.709,0,0,1,.74-3.333,10.62,10.62,0,0,1,3.672-5.368,10.128,10.128,0,0,1,6.2-1.852,10.341,10.341,0,0,1,4.72.987,7.115,7.115,0,0,1,2.931,2.592h.062v-2.221a.545.545,0,0,1,.617-.617h9.132a.546.546,0,0,1,.617.617v24.805q0,8.7-4.073,12.588T342.507,627.324Zm1.543-21.843a3.453,3.453,0,0,0,3.641-2.654,13.859,13.859,0,0,0,.308-1.45,17.1,17.1,0,0,0,0-4.1,13.5,13.5,0,0,0-.308-1.481,3.875,3.875,0,0,0-1.3-1.944,3.825,3.825,0,0,0-2.345-.648,3.4,3.4,0,0,0-3.579,2.592,6.508,6.508,0,0,0-.34,1.481,22.848,22.848,0,0,0,0,4.1,6.477,6.477,0,0,0,.34,1.45A3.414,3.414,0,0,0,344.05,605.48Z" transform="translate(-258.357 -573.516)" fill="#303133"/>
      <path id="Path_7" data-name="Path 7" d="M474.484,616.217a16.372,16.372,0,0,1-9.1-2.314,11.879,11.879,0,0,1-4.906-6.51,15.5,15.5,0,0,1-.74-2.962,26.518,26.518,0,0,1-.247-3.95,27.68,27.68,0,0,1,.247-4.041,17.536,17.536,0,0,1,.678-2.931,12.127,12.127,0,0,1,4.906-6.541,15.269,15.269,0,0,1,8.546-2.283,15.679,15.679,0,0,1,8.855,2.283,11.636,11.636,0,0,1,4.72,6.417,12.251,12.251,0,0,1,.432,1.512,18.98,18.98,0,0,1,.308,1.913q.123,1.081.185,2.53t.062,3.425q0,.618-.679.617H469.918a.327.327,0,0,0-.371.37c.04.206.071.411.093.617a2.228,2.228,0,0,0,.154.617,4.022,4.022,0,0,0,2.067,2.437,7.875,7.875,0,0,0,3.734.833,10.378,10.378,0,0,0,6.725-2.406.605.605,0,0,1,.926,0l4.381,4.5a.487.487,0,0,1,.216.463.657.657,0,0,1-.278.463,17.085,17.085,0,0,1-5.677,3.61A19.858,19.858,0,0,1,474.484,616.217Zm3.579-19.129a.327.327,0,0,0,.37-.37,5.618,5.618,0,0,0-.246-1.852q-.865-2.714-4.2-2.715a4.787,4.787,0,0,0-2.684.71,3.727,3.727,0,0,0-1.512,2,4.537,4.537,0,0,0-.185.8,7.54,7.54,0,0,0-.062,1.049.327.327,0,0,0,.371.37Z" transform="translate(-349.616 -573.516)" fill="#303133"/>
      <path id="Path_8" data-name="Path 8" d="M591.31,617.135a.545.545,0,0,1-.617-.617V587.7a.545.545,0,0,1,.617-.617h9.133a.546.546,0,0,1,.617.617v2.653h.062a6.9,6.9,0,0,1,3.085-2.992,10.349,10.349,0,0,1,4.69-1.018,6.511,6.511,0,0,1,4.134,1.173.589.589,0,0,1,.308.8l-3.517,8.7q-.309.371-.864.062a6.758,6.758,0,0,0-4.381-1.172,3.209,3.209,0,0,0-2.653,1.481,6.973,6.973,0,0,0-.864,3.764v15.365a.545.545,0,0,1-.617.617Z" transform="translate(-441.763 -574.681)" fill="#303133"/>
      <path id="Path_9" data-name="Path 9" d="M696.435,555.6a.545.545,0,0,1-.617-.617V548.2a.545.545,0,0,1,.617-.617h9.133a.546.546,0,0,1,.616.617v6.788a.545.545,0,0,1-.616.617Zm0,33.939a.545.545,0,0,1-.617-.617V560.108a.545.545,0,0,1,.617-.617h9.133a.546.546,0,0,1,.616.617v28.816a.545.545,0,0,1-.616.617Z" transform="translate(-515.593 -547.458)" fill="#303133"/>
      <path id="Path_10" data-name="Path 10" d="M786.065,614.232a.545.545,0,0,1-.617-.617v-1.727h-.062a8.645,8.645,0,0,1-3.178,2.252,12.512,12.512,0,0,1-4.906.833,12.8,12.8,0,0,1-3.671-.525,8.584,8.584,0,0,1-3.117-1.667,8.114,8.114,0,0,1-2.16-2.9,9.962,9.962,0,0,1-.8-4.165,9.414,9.414,0,0,1,.957-4.381,8.706,8.706,0,0,1,2.653-3.086,11.58,11.58,0,0,1,4.042-1.82,21.122,21.122,0,0,1,5.122-.586h4.751a.327.327,0,0,0,.37-.37v-.8a2.631,2.631,0,0,0-1.173-2.406q-1.172-.741-4.628-.741a13.347,13.347,0,0,0-3.733.494,9.25,9.25,0,0,0-2.746,1.234q-.555.309-.8-.185l-3.208-5.676a.8.8,0,0,1,.185-.988,15.538,15.538,0,0,1,5-2.19,26.484,26.484,0,0,1,6.664-.771,27.952,27.952,0,0,1,6.664.679,10.873,10.873,0,0,1,4.381,2.067,7.852,7.852,0,0,1,2.406,3.487,15.057,15.057,0,0,1,.741,5v18.944a.545.545,0,0,1-.617.617Zm-8.15-6.664q4.689,0,4.69-3.209v-1.851a.327.327,0,0,0-.37-.37h-3.641q-4.2,0-4.2,2.838Q774.4,607.568,777.915,607.568Z" transform="translate(-565.973 -572.643)" fill="#303133"/>
      <path id="Path_11" data-name="Path 11" d="M914.383,615.476a.545.545,0,0,1-.617-.617V597.705a5.2,5.2,0,0,0-.895-3.178,3.2,3.2,0,0,0-2.746-1.2,3.342,3.342,0,0,0-2.746,1.173,4.932,4.932,0,0,0-.956,3.209v17.154a.545.545,0,0,1-.617.617h-9.133a.545.545,0,0,1-.617-.617V586.043a.545.545,0,0,1,.617-.617h9.133a.546.546,0,0,1,.617.617V588.2h.062a8.34,8.34,0,0,1,2.962-2.5,10.024,10.024,0,0,1,4.752-1.018,10.773,10.773,0,0,1,4.443.833,8.481,8.481,0,0,1,3.085,2.314,9.526,9.526,0,0,1,1.82,3.548,16.608,16.608,0,0,1,.586,4.535v18.944a.546.546,0,0,1-.617.617Z" transform="translate(-656.223 -573.516)" fill="#303133"/>
    </g>
    <g id="Group_2" data-name="Group 2" transform="translate(90.521 376.586)">
      <path id="Path_13" data-name="Path 13" d="M91.234,800.388a.38.38,0,0,1-.431-.43V771.529a.381.381,0,0,1,.431-.431H102.95a13.973,13.973,0,0,1,4.717.732,9.509,9.509,0,0,1,3.4,2.024,8.342,8.342,0,0,1,2.046,3.08,11.369,11.369,0,0,1,0,7.8,8.412,8.412,0,0,1-2.067,3.1,9.581,9.581,0,0,1-3.4,2.046,13.774,13.774,0,0,1-4.7.732H98.642a.228.228,0,0,0-.258.258v9.089a.381.381,0,0,1-.431.43Zm11.285-16.2a3.787,3.787,0,0,0,2.757-.926,3.251,3.251,0,0,0,.947-2.434,3.181,3.181,0,0,0-.947-2.412,3.842,3.842,0,0,0-2.757-.9H98.642a.228.228,0,0,0-.258.259v6.159a.228.228,0,0,0,.258.259Z" transform="translate(-90.803 -771.098)" fill="#ffc800"/>
      <path id="Path_14" data-name="Path 14" d="M184.791,819.3a11.479,11.479,0,0,1-6.03-1.529,8.014,8.014,0,0,1-3.532-4.544,14.74,14.74,0,0,1-.5-2.348,20.26,20.26,0,0,1-.151-2.562,20.667,20.667,0,0,1,.151-2.606,14.779,14.779,0,0,1,.5-2.348,8.013,8.013,0,0,1,3.532-4.544,12.652,12.652,0,0,1,12.061,0,8.019,8.019,0,0,1,3.532,4.544,15.015,15.015,0,0,1,.5,2.348,20.834,20.834,0,0,1,.151,2.606,20.426,20.426,0,0,1-.151,2.563,14.974,14.974,0,0,1-.5,2.348,8.02,8.02,0,0,1-3.532,4.544A11.481,11.481,0,0,1,184.791,819.3Zm0-5.945a2.513,2.513,0,0,0,2.585-1.766,7.154,7.154,0,0,0,.237-1.271q.064-.667.065-2t-.065-2.025a7.191,7.191,0,0,0-.237-1.293,2.774,2.774,0,0,0-5.169,0,7.139,7.139,0,0,0-.237,1.293q-.065.689-.064,2.025t.064,2a7.1,7.1,0,0,0,.237,1.271A2.513,2.513,0,0,0,184.791,813.355Z" transform="translate(-149.642 -789.492)" fill="#ffc800"/>
      <path id="Path_15" data-name="Path 15" d="M260.684,819.3a16.888,16.888,0,0,1-5.837-.926,13.752,13.752,0,0,1-4.157-2.3.363.363,0,0,1-.043-.6l3.058-3.662a.478.478,0,0,1,.6-.086,12.3,12.3,0,0,0,6.806,2.24,3.716,3.716,0,0,0,2.025-.431,1.264,1.264,0,0,0,.646-1.076.955.955,0,0,0-.5-.862,6.467,6.467,0,0,0-2.132-.517l-2.326-.215a9.49,9.49,0,0,1-5.363-2.046,5.86,5.86,0,0,1-1.873-4.631,6.086,6.086,0,0,1,2.369-5,10.443,10.443,0,0,1,6.677-1.9,16.877,16.877,0,0,1,5.212.754,13.272,13.272,0,0,1,3.834,1.874.467.467,0,0,1,.086.647l-2.713,3.446a.45.45,0,0,1-.647.13,10.825,10.825,0,0,0-2.67-1.185,11.032,11.032,0,0,0-3.188-.452,3.139,3.139,0,0,0-1.659.344,1.072,1.072,0,0,0-.538.948.989.989,0,0,0,.452.84,4.523,4.523,0,0,0,1.96.452l2.326.259q4.092.431,5.794,2.2a6,6,0,0,1,1.658,4.437,6.534,6.534,0,0,1-2.606,5.32Q265.378,819.3,260.684,819.3Z" transform="translate(-202.965 -789.492)" fill="#ffc800"/>
      <path id="Path_16" data-name="Path 16" d="M329.98,776.7a.38.38,0,0,1-.431-.43v-4.738a.381.381,0,0,1,.431-.431h6.375a.381.381,0,0,1,.431.431v4.738a.381.381,0,0,1-.431.43Zm0,23.691a.38.38,0,0,1-.431-.43V779.842a.381.381,0,0,1,.431-.431h6.375a.381.381,0,0,1,.431.431v20.116a.381.381,0,0,1-.431.43Z" transform="translate(-258.477 -771.098)" fill="#ffc800"/>
      <path id="Path_17" data-name="Path 17" d="M374.228,805.729q-4.135,0-5.879-1.852T366.6,797.8V789.92a.228.228,0,0,0-.258-.258h-1.207a.381.381,0,0,1-.43-.431v-4.307a.381.381,0,0,1,.43-.431h1.207a.228.228,0,0,0,.258-.258v-5.471a.381.381,0,0,1,.431-.43h6.288a.381.381,0,0,1,.431.43v5.471a.228.228,0,0,0,.258.258h2.628a.381.381,0,0,1,.43.431v4.307a.381.381,0,0,1-.43.431h-2.628a.228.228,0,0,0-.258.258V797.5a2.6,2.6,0,0,0,.43,1.723,1.969,1.969,0,0,0,1.507.474h.948a.381.381,0,0,1,.43.431V805.3a.381.381,0,0,1-.43.431Z" transform="translate(-283.17 -776.18)" fill="#ffc800"/>
      <path id="Path_18" data-name="Path 18" d="M418.964,776.7a.38.38,0,0,1-.431-.43v-4.738a.381.381,0,0,1,.431-.431h6.374a.381.381,0,0,1,.431.431v4.738a.381.381,0,0,1-.431.43Zm0,23.691a.38.38,0,0,1-.431-.43V779.842a.381.381,0,0,1,.431-.431h6.374a.382.382,0,0,1,.431.431v20.116a.381.381,0,0,1-.431.43Z" transform="translate(-320.972 -771.098)" fill="#ffc800"/>
      <path id="Path_19" data-name="Path 19" d="M459.9,820a.517.517,0,0,1-.517-.43l-7.495-20.116c-.086-.287.029-.431.345-.431h6.634a.568.568,0,0,1,.6.431l3.489,11.2h.086l3.36-11.2a.567.567,0,0,1,.6-.431H473.6c.315,0,.43.144.344.431l-7.5,20.116a.54.54,0,0,1-.56.43Z" transform="translate(-344.379 -790.711)" fill="#ffc800"/>
      <path id="Path_20" data-name="Path 20" d="M539.692,819.3a11.426,11.426,0,0,1-6.353-1.616,8.288,8.288,0,0,1-3.425-4.544,10.8,10.8,0,0,1-.516-2.068,18.506,18.506,0,0,1-.173-2.757,19.314,19.314,0,0,1,.173-2.821,12.252,12.252,0,0,1,.473-2.046,8.465,8.465,0,0,1,3.425-4.566,10.661,10.661,0,0,1,5.966-1.594,10.949,10.949,0,0,1,6.181,1.594,8.123,8.123,0,0,1,3.295,4.48,8.551,8.551,0,0,1,.3,1.055,13.245,13.245,0,0,1,.215,1.336q.086.754.129,1.766t.043,2.391q0,.431-.473.43H536.5a.229.229,0,0,0-.259.259q.043.216.065.43a1.535,1.535,0,0,0,.108.43,2.81,2.81,0,0,0,1.443,1.7,5.5,5.5,0,0,0,2.606.582,7.247,7.247,0,0,0,4.695-1.68.422.422,0,0,1,.647,0l3.058,3.144a.339.339,0,0,1,.151.323.458.458,0,0,1-.193.323,11.927,11.927,0,0,1-3.963,2.521A13.868,13.868,0,0,1,539.692,819.3Zm2.5-13.353a.229.229,0,0,0,.258-.259,3.908,3.908,0,0,0-.172-1.292,2.718,2.718,0,0,0-2.929-1.895,3.347,3.347,0,0,0-1.874.495,2.6,2.6,0,0,0-1.055,1.4,3.123,3.123,0,0,0-.129.561,5.3,5.3,0,0,0-.043.732.229.229,0,0,0,.259.259Z" transform="translate(-398.712 -789.492)" fill="#ffc800"/>
      <path id="Path_21" data-name="Path 21" d="M643.072,800.388a.54.54,0,0,1-.56-.43l-9.347-28.386q-.173-.473.387-.474h7.064a.541.541,0,0,1,.56.431l5.212,17.66h.13l5.04-17.66a.541.541,0,0,1,.56-.431h7.021q.517,0,.344.474l-9.347,28.386a.541.541,0,0,1-.56.43Z" transform="translate(-471.682 -771.098)" fill="#ffc800"/>
      <path id="Path_22" data-name="Path 22" d="M731.072,776.7a.38.38,0,0,1-.431-.43v-4.738a.381.381,0,0,1,.431-.431h6.374a.381.381,0,0,1,.431.431v4.738a.381.381,0,0,1-.431.43Zm0,23.691a.38.38,0,0,1-.431-.43V779.842a.381.381,0,0,1,.431-.431h6.374a.382.382,0,0,1,.431.431v20.116a.381.381,0,0,1-.431.43Z" transform="translate(-540.169 -771.098)" fill="#ffc800"/>
      <path id="Path_23" data-name="Path 23" d="M782.949,800.906a7.153,7.153,0,0,1-3.338-.69,5.338,5.338,0,0,1-2.046-1.809h-.043v1.551a.381.381,0,0,1-.431.43h-6.374a.381.381,0,0,1-.431-.43V771.529a.381.381,0,0,1,.431-.431h6.374a.381.381,0,0,1,.431.431v9.864h.043a5.352,5.352,0,0,1,2.046-1.809,8.244,8.244,0,0,1,7.732.6,7.475,7.475,0,0,1,2.541,3.747,15.233,15.233,0,0,1,.56,2.628,27.753,27.753,0,0,1,.172,3.36,27.323,27.323,0,0,1-.172,3.317,15.207,15.207,0,0,1-.56,2.627,7.481,7.481,0,0,1-2.541,3.748A7.128,7.128,0,0,1,782.949,800.906Zm-2.541-5.945a2.512,2.512,0,0,0,2.584-1.766,5.4,5.4,0,0,0,.237-1.206q.065-.689.065-2.067t-.065-2.089a5.452,5.452,0,0,0-.237-1.228,2.513,2.513,0,0,0-2.584-1.766,2.4,2.4,0,0,0-2.541,1.766,4.181,4.181,0,0,0-.28,1.228q-.064.71-.064,2.089t.064,2.067a4.135,4.135,0,0,0,.28,1.206A2.4,2.4,0,0,0,780.408,794.961Z" transform="translate(-568.011 -771.098)" fill="#ffc800"/>
      <path id="Path_24" data-name="Path 24" d="M858.309,819.3a11.426,11.426,0,0,1-6.354-1.616,8.287,8.287,0,0,1-3.425-4.544,10.781,10.781,0,0,1-.516-2.068,18.465,18.465,0,0,1-.173-2.757,19.271,19.271,0,0,1,.173-2.821,12.253,12.253,0,0,1,.473-2.046,8.465,8.465,0,0,1,3.425-4.566,10.659,10.659,0,0,1,5.965-1.594,10.949,10.949,0,0,1,6.182,1.594,8.123,8.123,0,0,1,3.295,4.48,8.486,8.486,0,0,1,.3,1.055,13.333,13.333,0,0,1,.215,1.336q.086.754.129,1.766t.043,2.391q0,.431-.473.43H855.121a.229.229,0,0,0-.258.259q.043.216.065.43a1.547,1.547,0,0,0,.107.43,2.81,2.81,0,0,0,1.443,1.7,5.5,5.5,0,0,0,2.606.582,7.247,7.247,0,0,0,4.695-1.68.422.422,0,0,1,.646,0l3.058,3.144a.339.339,0,0,1,.151.323.459.459,0,0,1-.194.323,11.924,11.924,0,0,1-3.963,2.521A13.869,13.869,0,0,1,858.309,819.3Zm2.5-13.353a.229.229,0,0,0,.259-.259,3.909,3.909,0,0,0-.173-1.292,2.718,2.718,0,0,0-2.929-1.895,3.347,3.347,0,0,0-1.874.495,2.6,2.6,0,0,0-1.056,1.4,3.134,3.134,0,0,0-.129.561,5.31,5.31,0,0,0-.043.732.229.229,0,0,0,.258.259Z" transform="translate(-622.48 -789.492)" fill="#ffc800"/>
      <path id="Path_25" data-name="Path 25" d="M933.221,819.3a16.887,16.887,0,0,1-5.837-.926,13.752,13.752,0,0,1-4.157-2.3.363.363,0,0,1-.043-.6l3.058-3.662a.479.479,0,0,1,.6-.086,12.3,12.3,0,0,0,6.805,2.24,3.716,3.716,0,0,0,2.025-.431,1.265,1.265,0,0,0,.646-1.076.956.956,0,0,0-.5-.862,6.467,6.467,0,0,0-2.132-.517l-2.326-.215a9.489,9.489,0,0,1-5.363-2.046,5.86,5.86,0,0,1-1.873-4.631,6.086,6.086,0,0,1,2.369-5,10.442,10.442,0,0,1,6.676-1.9,16.878,16.878,0,0,1,5.212.754,13.271,13.271,0,0,1,3.834,1.874.468.468,0,0,1,.086.647l-2.713,3.446a.45.45,0,0,1-.646.13,10.828,10.828,0,0,0-2.67-1.185,11.029,11.029,0,0,0-3.188-.452,3.14,3.14,0,0,0-1.659.344,1.071,1.071,0,0,0-.538.948.989.989,0,0,0,.452.84,4.525,4.525,0,0,0,1.96.452l2.326.259q4.092.431,5.793,2.2a5.994,5.994,0,0,1,1.659,4.437,6.534,6.534,0,0,1-2.606,5.32Q937.915,819.3,933.221,819.3Z" transform="translate(-675.295 -789.492)" fill="#ffc800"/>
    </g>
  </g>
</svg>
